{"title":"Neerja 2016 Hindi 720p DvDRip x264 AC3 5.1 E-Sub - Hon3y","uid":14579869,"size":3188193594,"categoryP":"video","categoryS":"hd___movies","magnet":"?xt=urn:btih:e2b2a37a08de018518a9ad2161c67c944ae05917&amp;dn=Neerja+2016+Hindi+720p+DvDRip+x264+AC3+5.1+E-Sub+-+Hon3y&amp;tr=udp%3A%2F%2Ftracker.leechers-paradise.org%3A6969&amp;tr=udp%3A%2F%2Fzer0day.ch%3A1337&amp;tr=udp%3A%2F%2Fopen.demonii.com%3A1337&amp;tr=udp%3A%2F%2Ftracker.coppersurfer.tk%3A6969&amp;tr=udp%3A%2F%2Fexodus.desync.com%3A6969","seeders":4,"leechers":2,"uploader":"CDRiPD","files":4,"time":1462861839,"description":"Neerja Hindi 720p DvDRip x264 AC3 5.1 E-Sub - Hon3y\r\n\r\n\r\nGeneral\r\nFormat                                   : Matroska\r\nFormat version                           : Version 4 / Version 2\r\nFile size                                : 2.94 GiB\r\nDuration                                 : 1h 58mn\r\nOverall bit rate                         : 3 539 Kbps\r\n\r\nVideo\r\nID                                       : 1\r\nFormat                                   : AVC\r\nFormat/Info                              : Advanced Video Codec\r\nFormat profile                           :   \r\nFormat settings, CABAC                   : Yes\r\nFormat settings, ReFrames                : 8 frames\r\nCodec ID                                 : V_MPEG4/ISO/AVC\r\nDuration                                 : 1h 58mn\r\nBit rate                                 : 3 236 Kbps\r\nWidth                                    : 1 280 pixels\r\nHeight                                   : 544 pixels\r\nDisplay aspect ratio                     : 2.35:1\r\nFrame rate mode                          : Constant\r\nFrame rate                               : 23.976 (24000/1001) fps\r\nColor space                              : YUV\r\nChroma subsampling                       : 4:2:0\r\nBit depth                                : 8 bits\r\nScan type                                : Progressive\r\nBits/(Pixel*Frame)                       : 0.194\r\nStream size                              : 2.62 GiB (89%)\r\nWriting library                          : x264 core 148 r2638 7599210\r\nForced                                   : No\r\n\r\nAudio\r\nID                                       : 2\r\nFormat                                   : AC-3\r\nFormat/Info                              : Audio Coding 3\r\nMode extension                           : CM (complete main)\r\nFormat settings, Endianness              : Big\r\nCodec ID                                 : A_AC3\r\nDuration                                 : 1h 58mn\r\nBit rate mode                            : Constant\r\nBit rate                                 : 384 Kbps\r\nChannel(s)                               : 6 channels\r\nChannel positions                        : Front: L C R, Side: L R, LFE\r\nSampling rate                            : 48.0 KHz\r\nFrame rate                               : 31.250 fps (1536 spf)\r\nCompression mode                         : Lossy\r\nDelay relative to video                  : 15ms\r\nStream size                              : 326 MiB (11%)\r\nDefault                                  : Yes\r\nForced                                   : No\r\n\r\nChapters                                 :\r\nSubtitle                                 : Yes, English\r\n\r\n \nhttps://ititli.com/XBI \nhttps://ititli.com/XBO \nhttps://ititli.com/XN9 \nhttps://ititli.com/XNX \nhttps://ititli.com/XNq \nhttps://ititli.com/XNr \nhttps://ititli.com/XN1 \nhttps://ititli.com/XNT \nhttps://ititli.com/XNW","torrent":{"xt":"urn:btih:e2b2a37a08de018518a9ad2161c67c944ae05917","amp;dn":"Neerja+2016+Hindi+720p+DvDRip+x264+AC3+5.1+E-Sub+-+Hon3y","amp;tr":["udp%3A%2F%2Ftracker.leechers-paradise.org%3A6969","udp%3A%2F%2Fzer0day.ch%3A1337","udp%3A%2F%2Fopen.demonii.com%3A1337","udp%3A%2F%2Ftracker.coppersurfer.tk%3A6969","udp%3A%2F%2Fexodus.desync.com%3A6969"],"infoHash":"e2b2a37a08de018518a9ad2161c67c944ae05917","infoHashBuffer":{"type":"Buffer","data":[226,178,163,122,8,222,1,133,24,169,173,33,97,198,124,148,74,224,89,23]},"announce":[],"urlList":[]}}